<?xml version="1.0" standalone="no"?>
<!DOCTYPE svg PUBLIC "-//W3C//DTD SVG 1.1//EN" "http://www.w3.org/Graphics/SVG/1.1/DTD/svg11.dtd" >
<!--
2013-9-30: Created.
-->
<svg>
<metadata>
Created by iconfont
</metadata>
<defs>

<font id="iconfont" horiz-adv-x="1024" >
  <font-face
    font-family="iconfont"
    font-weight="500"
    font-stretch="normal"
    units-per-em="1024"
    ascent="896"
    descent="-128"
  />
    <missing-glyph />
    
    <glyph glyph-name="x" unicode="x" horiz-adv-x="1001"
d="M281 543q-27 -1 -53 -1h-83q-18 0 -36.5 -6t-32.5 -18.5t-23 -32t-9 -45.5v-76h912v41q0 16 -0.5 30t-0.5 18q0 13 -5 29t-17 29.5t-31.5 22.5t-49.5 9h-133v-97h-438v97zM955 310v-52q0 -23 0.5 -52t0.5 -58t-10.5 -47.5t-26 -30t-33 -16t-31.5 -4.5q-14 -1 -29.5 -0.5
t-29.5 0.5h-32l-45 128h-439l-44 -128h-29h-34q-20 0 -45 1q-25 0 -41 9.5t-25.5 23t-13.5 29.5t-4 30v167h911zM163 247q-12 0 -21 -8.5t-9 -21.5t9 -21.5t21 -8.5q13 0 22 8.5t9 21.5t-9 21.5t-22 8.5zM316 123q-8 -26 -14 -48q-5 -19 -10.5 -37t-7.5 -25t-3 -15t1 -14.5
t9.5 -10.5t21.5 -4h37h67h81h80h64h36q23 0 34 12t2 38q-5 13 -9.5 30.5t-9.5 34.5q-5 19 -11 39h-368zM336 498v228q0 11 2.5 23t10 21.5t20.5 15.5t34 6h188q31 0 51.5 -14.5t20.5 -52.5v-227h-327z" />
    

    
    <glyph glyph-name="right" unicode="&#58957;" d="M318.73024 59.67872c3.9936-3.9936 9.23648-6.00064 14.47936-6.00064s10.48576 2.00704 14.47936 6.00064l307.2 307.2c8.00768 8.00768 8.00768 20.95104 0 28.95872l-307.2 307.2c-8.00768 8.00768-20.95104 8.00768-28.95872 0s-8.00768-20.95104 0-28.95872l292.72064-292.72064L318.73024 88.63743999999997C310.72256 80.62976000000003 310.72256 67.66592000000003 318.73024 59.67872z"  horiz-adv-x="1024" />

    
    <glyph glyph-name="wenhao" unicode="&#59008;" d="M502.757-64.219c-60.5 0-119.201 11.854-174.474 35.231-53.377 22.576-101.31 54.894-142.466 96.05-41.156 41.153-73.472 89.088-96.049 142.465C66.39 264.799 54.537 323.5 54.537 384S66.39 503.201 89.768 558.474c22.576 53.376 54.893 101.309 96.049 142.465 41.156 41.157 89.089 73.473 142.466 96.049 55.271 23.378 113.973 35.231 174.474 35.231 60.499 0 119.2-11.853 174.474-35.231 53.377-22.577 101.31-54.893 142.466-96.05 41.157-41.155 73.472-89.088 96.048-142.465 23.379-55.27 35.231-113.972 35.231-174.474s-11.854-119.204-35.232-174.473c-22.577-53.38-54.892-101.312-96.047-142.466-41.156-41.155-89.09-73.473-142.465-96.049C621.956-52.365 563.256-64.219 502.757-64.219zM502.757 801.52c-56.369 0-111.047-11.038-162.515-32.806-49.717-21.029-94.369-51.136-132.716-89.482-38.348-38.348-68.453-83-89.482-132.717C96.275 495.048 85.237 440.37 85.237 384c0-56.368 11.038-111.047 32.807-162.512 21.03-49.722 51.135-94.373 89.482-132.717 38.347-38.351 82.999-68.455 132.716-89.482 51.469-21.77 106.146-32.809 162.515-32.809s111.046 11.036 162.516 32.809c49.717 21.029 94.368 51.135 132.715 89.482 38.348 38.344 68.453 82.996 89.48 132.715 21.771 51.465 32.809 106.145 32.809 162.514 0 56.371-11.037 111.049-32.809 162.515-21.028 49.718-51.135 94.371-89.48 132.718-38.348 38.347-82.999 68.453-132.717 89.482C613.804 790.482 559.125 801.52 502.757 801.52zM446.479 176.706l0-74.638 89.476 0 0 74.638L446.479 176.706zM677.814 434.852c13.094 19.66 19.645 41.14 19.645 64.442 0 40.29-18.628 74.642-55.87 103.039-37.253 28.397-87.159 42.599-149.72 42.599-59.074 0-106.578-13.231-142.51-39.685-35.942-26.461-57.545-64.57-64.816-114.325l80.75-8.01c6.979 37.134 21.674 64.443 44.081 81.917 22.407 17.479 50.34 26.216 83.806 26.216 34.628 0 63.873-9.647 87.736-28.943 23.858-19.299 35.795-41.69 35.795-67.178 0-14.08-4.082-27.068-12.226-38.956-8.149-11.897-25.823-27.854-53.032-47.879-27.21-20.024-46.045-35.258-56.526-45.695-14.259-14.323-24.589-28.523-30.986-42.596-8.733-18.695-13.093-40.905-13.093-66.63 0-4.371 0.14-10.923 0.436-19.663l75.509 0c0.578 26.216 2.761 45.153 6.55 56.798 3.775 11.651 9.602 21.969 17.456 30.951 7.859 8.975 24.59 22.938 50.198 41.868C639.109 391.278 664.72 415.186 677.814 434.852L677.814 434.852z"  horiz-adv-x="1024" />

    
    <glyph glyph-name="camera" unicode="&#58909;" d="M512.002 498.389c-106.045 0-192.337-83.495-192.337-186.094 0-102.622 86.291-186.093 192.337-186.093 106.044 0 192.359 83.471 192.359 186.093-0.001 102.6-86.316 186.094-192.359 186.094zM512.002 163.43c-84.836 0-153.878 66.78-153.878 148.864 0 82.086 69.041 148.866 153.878 148.866 84.836 0 153.876-66.781 153.876-148.866 0-82.085-69.039-148.864-153.876-148.864zM244.783 504.809h-70.382c-15.527 0-28.123-12.17-28.123-27.206 0-15.011 12.596-27.204 28.123-27.204h70.382c15.527 0 28.146 12.193 28.146 27.204 0 15.013-12.619 27.206-28.146 27.206zM878.953 570.965h-181.484l-28.167 106.001c-3.87 16.757-19.553 28.883-37.52 28.883h-239.609c-17.72-0.023-33.066-11.611-37.273-28.077l-28.391-106.807h-181.464c-41.613 0-75.439-31.142-75.439-69.421v-426.89c0-38.278 33.827-69.4 75.439-69.4h733.907c41.589 0 75.44 31.122 75.44 69.4l-0 426.911c0 38.257-33.827 69.4-75.44 69.4zM915.913 74.655c0-17.74-16.578-32.194-36.96-32.194h-733.907c-20.381 0-36.959 14.454-36.959 32.194l0 426.911c0 17.741 16.578 32.172 36.959 32.172h196.386c8.771 0 16.445 5.75 18.637 13.982l32.104 120.902 239.563 0.269c0.090-0.292 0.135-0.56 0.226-0.85l31.993-120.319c2.168-8.232 9.843-13.982 18.613-13.982h196.385c20.382 0 36.96-14.431 36.96-32.172l0-426.912z"  horiz-adv-x="1024" />

    
    <glyph glyph-name="menhu-back" unicode="&#58903;" d="M482.7 646.1V789.9c0 37.4-45.3 56.2-71.7 29.7L140.3 549c-16.4-16.4-16.4-43 0-59.4L410.9 219c26.5-26.5 71.7-7.7 71.7 29.7v155c96.1 0.3 271.5 10.7 271.5-227.7 0-118.1-92.8-216.8-216-239.6 198.1 24.4 326 236 326 361.9 0.1 292.6-309.4 346.3-381.4 347.8z"  horiz-adv-x="1024" />

    
    <glyph glyph-name="delete" unicode="&#58880;" d="M896 768H341.333333L0 384l341.333333-384h554.666667c70.688 0 128 57.312 128 128V640c0 70.688-57.312 128-128 128z m42.666667-640c0-23.530667-19.136-42.666667-42.666667-42.666667H379.658667L114.176 384l265.482667 298.666667H896c23.530667 0 42.666667-19.136 42.666667-42.666667v-512zM798.165333 286.165333a42.666667 42.666667 0 0 0-59.274666-61.376c-0.362667 0.330667-0.704 0.682667-1.056 1.045334L640 323.658667l-97.834667-97.824A42.538667 42.538667 0 0 0 512 213.333333a42.666667 42.666667 0 0 0-30.165333 72.832L579.658667 384l-97.824 97.834667a42.666667 42.666667 0 1 0 59.285333 61.376c0.362667-0.341333 0.704-0.693333 1.056-1.045334L640 444.341333l97.834667 97.824a42.666667 42.666667 0 1 0 60.330666-60.341333L700.341333 384l97.824-97.834667z"  horiz-adv-x="1024" />

    
    <glyph glyph-name="dongyayinhang" unicode="&#58960;" d="M530.858667 173.909333v14.592c85.333333 6.826667 156.672 62.848 185.770666 139.776-14.122667-6.314667-30.08-12.074667-47.530666-16.938666a182.4 182.4 0 0 0-89.770667-75.605334c13.098667 23.168 23.466667 52.992 29.952 87.04 51.626667 8.96 93.269333 24.874667 116.736 44.586667v74.325333c-23.466667 19.712-65.066667 35.584-116.736 44.586667-6.314667 33.536-16.512 62.933333-29.397333 86.016a182.186667 182.186667 0 0 0 89.216-78.506667c17.706667-5.717333 33.792-12.288 47.530666-19.584a217.557333 217.557333 0 0 1-185.770666 146.261334v16.384a368.298667 368.298667 0 0 1 182.784 58.965333l-25.344 25.941333a333.696 333.696 0 0 0-157.44-49.28V725.333333h-37.674667v-52.864a333.482667 333.482667 0 0 0-157.44 49.493334l-25.301333-25.941334a368.853333 368.853333 0 0 1 182.741333-59.178666v-16.042667a217.856 217.856 0 0 1-185.813333-139.861333c14.165333 6.357333 30.165333 12.117333 47.530666 16.896a182.912 182.912 0 0 0 89.941334 75.733333c-13.184-23.253333-23.637333-53.12-30.122667-87.296-51.626667-9.002667-93.184-24.874667-116.736-44.586667v-74.325333c23.552-19.712 65.152-35.626667 116.736-44.586667 6.357333-33.408 16.469333-62.848 29.354667-85.845333a182.698667 182.698667 0 0 0-89.088 78.549333 288.042667 288.042667 0 0 0-47.616 19.541334 217.514667 217.514667 0 0 1 185.813333-146.218667v-14.890667c-93.226667-6.016-172.16-56.533333-209.024-127.189333h45.781333c33.066667 50.602667 93.141333 86.101333 163.242667 91.52V42.666667h37.674667v95.530666c70.144-5.461333 130.218667-40.874667 163.242666-91.477333h45.738667c-36.864 70.656-115.754667 121.173333-208.981333 127.189333m83.498666 278.613334c32.128-5.888 58.154667-14.421333 73.984-24.618667v-46.762667c-15.829333-10.24-41.813333-18.773333-73.984-24.618666a456.746667 456.746667 0 0 1 0 96m-204.629333-96c-32.170667 5.888-58.154667 14.378667-74.026667 24.618666v46.762667c15.872 10.24 41.813333 18.730667 74.026667 24.618667a466.901333 466.901333 0 0 1 0-96m164.394667-5.546667c-19.498667-1.92-40.32-2.986667-62.037334-2.986667-21.802667 0-42.666667 1.066667-62.208 2.986667a396.458667 396.458667 0 0 0-3.84 53.546667c0 17.834667 1.408 35.882667 3.84 53.504 19.541333 2.005333 40.405333 3.029333 62.208 3.029333 21.717333 0 42.538667-1.024 62.037334-2.986667 2.432-17.664 3.84-35.712 3.84-53.546666 0-17.792-1.408-35.925333-3.84-53.546667m-72.533334 234.666667h18.261334c4.138667-0.170667 8.277333-0.554667 12.288-0.981334 13.482667-17.493333 27.178667-52.266667 36.010666-92.970666a602.197333 602.197333 0 0 1-112.298666 0c8.96 40.917333 22.741333 75.818667 36.181333 93.226666l9.514667 0.768m-45.653334-268.373333a602.026667 602.026667 0 0 1 112.256 0c-8.832-40.746667-22.613333-75.605333-36.053333-93.013333a160.853333 160.853333 0 0 0-15.146667-0.938667h-7.338666a182.741333 182.741333 0 0 0-17.834667 1.28c-13.397333 17.493333-27.008 52.138667-35.925333 92.672"  horiz-adv-x="1024" />

    
    <glyph glyph-name="yonghux" unicode="&#58881;" d=""  horiz-adv-x="1024" />

    
    <glyph glyph-name="yonghux1" unicode="&#58882;" d=""  horiz-adv-x="1024" />

    
    <glyph glyph-name="more" unicode="&#58885;" d="M503.592938-110.36074699999995c-277.243458 0-502.767809 225.524351-502.767809 502.734804C0.825129 669.617515 226.34948 895.141865 503.592938 895.141865c277.210453 0 502.734804-225.524351 502.734804-502.767808 0-277.210453-225.524351-502.734804-502.734804-502.734804z m0 955.994852c-249.948179 0-453.260049-203.311869-453.260048-453.260048 0-249.915174 203.311869-453.227043 453.260048-453.227044 249.915174 0 453.227043 203.311869 453.227044 453.227044 0 249.948179-203.311869 453.260049-453.227044 453.260048zM673.305541 358.246707a34.160355 34.160355 0 1 0 0.033005 68.320709 34.160355 34.160355 0 0 0-0.033005-68.320709z m-171.527887 0a34.094344 34.094344 0 1 0-0.033005 68.221694 34.094344 34.094344 0 0 0 0.033005-68.221694z m-171.527887 0a34.127349 34.127349 0 1 0-0.033006 68.287704 34.127349 34.127349 0 0 0 0.033006-68.287704z"  horiz-adv-x="1024" />

    
    <glyph glyph-name="credit-apply" unicode="&#58886;" d="M503.642475-110.39377999999999c-277.252558 0-502.817318 225.531754-502.817319 502.751305C0.825156 669.610084 226.389916 895.174844 503.642475 895.174844c277.219552 0 502.751306-225.56476 502.751305-502.817319 0-277.219552-225.531754-502.751306-502.751305-502.751305z m0 956.059238c-249.956384 0-453.307933-203.384555-453.307933-453.307933s203.351549-453.24192 453.307933-453.24192c249.923378 0 453.24192 203.318543 453.24192 453.24192 0 249.923378-203.318543 453.307933-453.24192 453.307933z m35.71277-696.663065a50.268529 50.268529 0 0 0-35.71277-14.753797c-12.938453 0-25.876905 4.884926-35.71277 14.753797l-207.642363 207.642362a50.532579 50.532579 0 0 0 0 71.42554l207.642363 207.642363a50.499573 50.499573 0 0 0 71.42554 0l207.642362-207.642363a50.598592 50.598592 0 0 0 0-71.42554l-207.642362-207.642362z m184.306938 255.732479l-207.642362 207.642362a17.493316 17.493316 0 0 1-24.754693 0l-207.642362-207.642362a17.493316 17.493316 0 0 1 0-24.754693l207.642362-207.642362a17.493316 17.493316 0 0 1 24.754693 0l207.642362 207.642362a17.493316 17.493316 0 0 1 0 24.754693z"  horiz-adv-x="1024" />

    
    <glyph glyph-name="person" unicode="&#58887;" d="M978.992695-127.78931299999999H45.007305C18.574892-127.78931299999999 0.210687-104.18679399999996 0.210687-82.99269500000003c0 139.567956 64.425243 222.477825 197.00878 253.426025 121.926277 28.660202 176.717839 99.889232 177.259734 100.611758 5.238314 7.044629 5.238314 24.565887 5.238314 37.330515l-2.589052 7.646734-5.238314 12.403365a760.63934 760.63934 0 0 1-28.53978 64.184401l-2.890105 6.683366-6.322103 7.827366c-9.031576 5.358735-26.07115 18.544836-42.629039 43.351565-29.563359 50.637037-20.17052 97.541022 3.973893 126.98396-13.667785 39.618514-18.845889 86.522499-15.53431 139.567956C284.705335 803.004921 359.908258 895.789313 513.685894 895.789313c163.832791 0 229.582665-106.933861 233.7974-178.885418 3.311578-52.563773-1.746105-99.046285-15.413889-141.735534 26.733465-28.901044 35.64462-76.828607 3.793261-124.695961-21.495151-26.010939-33.657674-38.053041-46.663143-46.663143l-2.287999-4.395367v-1.083789l-2.890104-5.719998c-6.743577-13.426943-14.932206-32.754516-20.772625-46.542723-3.492209-8.24884-6.261893-14.811785-7.646735-17.461047l-3.733051-7.466103-4.214736-12.885048c0-19.207152 0.301053-30.466517 5.418946-37.390725 0.481684-0.662316 56.477456-71.710714 178.584365-100.431127 134.690905-30.466517 192.131729-106.271546 192.131729-253.426025 0-26.372202-23.542308-44.796617-44.796618-44.796618zM54.219512-73.90090899999996h915.560976c-2.287999 132.282485-57.079561 170.817209-150.104795 191.830677l-0.240842 0.06021c-142.999955 33.657674-206.883303 117.109437-209.532566 120.661857-16.076205 21.555362-16.076205 46.061038-16.076205 69.723768 0 12.764628 5.117893 27.516202 9.994944 37.089672l3.61263 7.225261c1.023579 1.986947 3.311578 7.466103 6.261893 14.450522 5.840419 13.788206 13.968838 32.874937 20.953257 47.084617 4.575999 14.570943 17.581468 28.058096 20.591993 31.068622 12.282944 8.730524 21.615572 18.303994 37.511146 37.390725 19.809257 29.924622 5.90063 52.503562-5.659788 60.752402l-11.319575 8.068208 1.625684 30.225674c14.089259 38.775567 19.447994 81.946501 16.317047 131.921222-3.070736 51.600405-53.527141 128.248381-180.029417 128.248381-136.738062 0-177.500576-83.752816-179.969206-128.06775-3.191157-50.396195 2.167578-93.326286 15.955784-127.766696l1.926736-17.099784v-12.343154l-9.392839-8.068208c-14.691364-12.644207-23.72294-37.511146-5.057682-69.543136 10.416418-15.41389 21.073678-23.843361 30.88799-30.406307 6.382314-5.719998 19.929678-19.688836 24.626097-34.259778 10.356207-20.832836 24.806729-52.864825 28.901044-65.448822l6.141472-14.390311c2.890104-7.947787 5.90063-16.136416 5.900629-26.13136 0-20.351151 0-48.168406-16.015995-69.603347-2.769683-3.733051-67.315347-87.726709-208.087513-120.782278-106.090914-24.746519-152.874478-82.428185-155.282899-191.890887z"  horiz-adv-x="1024" />

    
    <glyph glyph-name="fangdajing" unicode="&#58888;" d="M1004.742277-113.599091a41.198818 41.198818 0 0 0-58.116963 0l-164.951921 163.933699a477.467668 477.467668 0 0 0-301.628607-106.599983c-263.797754 0-477.624317 212.651693-477.624318 474.961276 0 262.387908 213.826564 474.961276 477.624318 474.961275 263.876078 0 477.780967-212.573368 477.780967-474.961275a471.436662 471.436662 0 0 0-117.0955-311.497526l163.933699-162.993802a40.728869 40.728869 0 0 0 0.078325-57.803664zM875.663091 418.695901a390.840496 390.840496 0 0 1-115.842303 278.131182 395.539981 395.539981 0 0 1-279.776002 115.137381 395.070032 395.070032 0 0 1-279.619353-115.137381A390.840496 390.840496 0 0 1 84.58313 418.695901c0-108.714751 44.175158-206.777336 115.842303-278.052858a394.756733 394.756733 0 0 1 279.619353-115.215705A395.305007 395.305007 0 0 1 759.820788 140.643043a390.448872 390.448872 0 0 1 115.842303 278.052858z"  horiz-adv-x="1024" />

    
    <glyph glyph-name="message" unicode="&#58889;" d="M543.979709-127.82615299999998h-388.765724a56.780257 56.780257 0 0 0-51.226461 36.684285 53.78413 53.78413 0 0 0 14.396024 59.630231l56.049494 50.714927a497.868586 497.868586 0 0 0-23.457481 21.33827C53.637978 134.73686399999997 0 256.628072 0 383.853847 0 666.001302 262.124559 895.533847 584.24473 895.533847c322.193248 0 584.24473-229.532545 584.24473-511.68 0-254.67078-193.067489-511.68-624.509751-511.68z m40.265021 934.060806c-272.793693 0-494.726307-189.486752-494.726307-422.380806 0-102.818303 43.918835-201.982793 123.791191-279.224404 13.226804-12.788346 27.403599-24.992082 42.311157-36.318903a59.922536 59.922536 0 0 0 8.330694-88.42228l-20.315201-18.415218h300.343445c320.00096 0 535.064404 169.756161 535.064404 422.380805 0 232.894053-222.00569 422.380805-494.799383 422.380806z m233.405587-474.411105a45.307284 45.307284 0 0 0-45.307284 45.161131 45.307284 45.307284 0 0 0 90.541491 0 45.234207 45.234207 0 0 0-45.234207-45.161131z m-237.717086 0a45.161131 45.161131 0 0 0 0 90.176109 45.161131 45.161131 0 1 0 0-90.176109z m-237.717087 0a45.161131 45.161131 0 1 0 0 90.322262 45.161131 45.161131 0 0 0 0-90.322262z"  horiz-adv-x="1169" />

    
    <glyph glyph-name="scan" unicode="&#58890;" d="M982.387659 338.95043599999997H41.612341c-22.963577 0-41.539209 19.965148-41.539209 44.61077 0 24.718754 18.575632 44.683902 41.539209 44.683902h940.775318c22.963577 0 41.539209-19.965148 41.539209-44.683902 0-24.645622-18.575632-44.61077-41.539209-44.61077z m-56.092558 194.532209c-22.890444 0-41.466076 20.03828-41.466077 44.683903v162.353949c0 36.346808-27.497786 65.965434-61.358091 65.965434H198.993287c-33.787173 0-61.284959-29.618626-61.28496-65.965434v-162.353949c0-24.645622-18.648764-44.683902-41.539208-44.683903-22.890444 0-41.539209 20.03828-41.539209 44.683903v162.353949C54.62991 826.158549 119.425225 895.853735 198.993287 895.853735h624.477646c79.641194 0 144.363377-69.695186 144.363376-155.333238v-162.353949c0-24.645622-18.575632-44.683902-41.539208-44.683903zM96.169119 246.94986400000005c22.890444 0 41.539209-20.03828 41.539208-44.683902v-175.590916c0-36.41994 27.497786-66.038566 61.28496-66.038565h624.477646c33.860306 0 61.358092 29.618626 61.358091 66.038565V202.26596199999994c0 24.645622 18.575632 44.683902 41.466077 44.683902 22.963577 0 41.539209-20.03828 41.539208-44.683902v-175.590916c0-85.711184-64.722183-155.406371-144.363376-155.40637H198.993287c-79.568062 0-144.363377 69.695186-144.363377 155.40637V202.26596199999994c0 24.645622 18.648764 44.683902 41.539209 44.683902z"  horiz-adv-x="1024" />

    
    <glyph glyph-name="account" unicode="&#58891;" d="M970.099831 432.902382l-1.013163-0.065365-0.130731-1.013163-5.22923 1.405355a23.694951 23.694951 0 0 0-7.124827 1.928279l-4.346798 1.176577s-67.816585 52.324989-91.053979 69.94096c-3.464365 2.614615-0.35951 10.589192 4.150702 10.589192h63.241008c-54.64546 188.546447-229.269081 324.179617-430.267633 324.179617-222.765225 0-413.664826-166.452948-444.027047-387.191846a24.512019 24.512019 0 0 0-48.56648 6.699951C39.394826 705.410664 251.178667 890.067871 498.32518 890.067871c227.79836 0 425.169134-156.974967 481.187267-373.203654h1.241942l-0.392192-2.974125c4.379481-17.452557 8.170673-35.166576 10.68724-53.338153a24.577384 24.577384 0 0 0-20.949606-27.649557z m-314.047982-76.967738a16.341346 16.341346 0 1 0 0-32.682692h-141.614102v-121.775708a16.341346 16.341346 0 1 0-32.682692 0v121.775708h-141.614102a16.341346 16.341346 0 1 0 0 32.682692h141.614102v83.438911h-141.614102a16.341346 16.341346 0 1 0 0 32.682692h118.507439l-99.355382 99.355382a16.341346 16.341346 0 0 0 23.106663 23.106663l115.696728-115.696728 115.72941 115.696728a16.341346 16.341346 0 0 0 23.106663-23.106663l-99.388065-99.355382h118.50744a16.341346 16.341346 0 1 0 0-32.682692h-141.614102v-83.438911h141.614102z m-629.37059-4.412163c0.424875 0.065365 0.817067-0.098048 1.241942-0.065366l0.130731 0.882433 4.37948-1.176577a22.877884 22.877884 0 0 0 7.549702-2.026327l4.73899-1.274625s67.849268-52.357672 91.086662-69.973642c3.497048-2.647298 0.35951-10.589192-4.183385-10.589192h-63.404421c54.743508-188.415716 229.269081-323.885473 430.136902-323.885473 222.797908 0 413.697509 166.452948 444.092412 387.159163a24.544701 24.544701 0 0 0 48.599163-6.699951c-33.76122-244.858725-245.545061-429.483249-492.691575-429.483249-227.667629 0-424.940355 156.811554-481.023853 372.90951H16.222797l0.35951 2.581932a490.142324 490.142324 0 0 0-10.850654 53.991807 24.512019 24.512019 0 0 0 20.949606 27.649557z"  horiz-adv-x="1024" />

    
    <glyph glyph-name="back" unicode="&#58892;" d="M343.920772 384.551688l406.027358-408.020895c14.017055-14.079353 14.017055-36.911578 0-50.990931l-12.677647-12.771095a35.821363 35.821363 0 0 0-50.772888 0L242.374996 359.009499a36.319747 36.319747 0 0 0 0 51.053229L686.497595 856.30346a35.821363 35.821363 0 0 0 50.772888 0l12.677647-12.739946c14.017055-14.079353 14.017055-36.911578 0-51.053229L343.920772 384.551688z"  horiz-adv-x="1024" />

    
    <glyph glyph-name="loan" unicode="&#58893;" d="M975.629792-96.74030100000004a25.509971 25.509971 0 0 0-36.184598 0l-78.917209 78.883105a265.433294 265.433294 0 0 0-166.701522-58.795708c-147.125688 0-266.831568 119.739984-266.831568 266.899776 0 147.125688 119.70588 266.865672 266.831568 266.865673 147.193897 0 266.933881-119.739984 266.933881-266.865673a265.603816 265.603816 0 0 0-63.536198-172.431034l78.405646-78.405646a25.544075 25.544075 0 0 0 0-36.150493z m-281.803329 502.696487a215.948043 215.948043 0 0 1-215.675209-215.709314 215.948043 215.948043 0 0 1 215.675209-215.743418 216.016252 216.016252 0 0 1 215.777522 215.743418 215.982147 215.982147 0 0 1-215.777522 215.709314z m82.361738 108.519689a25.578179 25.578179 0 0 0-25.57818 25.57818V808.181584c0 19.746355-16.028992 35.809451-35.775347 35.809451H121.386807a35.809451 35.809451 0 0 1-35.741243-35.809451v-738.459093a35.809451 35.809451 0 0 1 35.741243-35.741243h255.679481a25.578179 25.578179 0 0 0 0-51.156359H121.386807a86.96581 86.96581 0 0 0-86.897602 86.897602V808.181584A87.034019 87.034019 0 0 0 121.386807 895.147394h593.447867a87.034019 87.034019 0 0 0 86.931706-86.96581v-268.127529a25.578179 25.578179 0 0 0-25.578179-25.57818zM181.853623 692.568213c0 9.446874 7.605245 17.05212 17.052119 17.052119h394.551945a17.05212 17.05212 0 1 0 0-34.104239H198.905742a17.05212 17.05212 0 0 0-17.052119 17.05212z m17.052119-191.734034a17.05212 17.05212 0 1 0 0 34.10424h197.25892a17.05212 17.05212 0 1 0 0-34.10424H198.905742z"  horiz-adv-x="1024" />

    
    <glyph glyph-name="card" unicode="&#58895;" d="M34.133333 588.8h1467.733334v-102.4H34.133333V588.8zM170.666667 145.06666700000005h204.8v-34.133334H170.666667v34.133334zM1365.333333-128H136.533333a136.533333 136.533333 0 0 0-136.533333 136.533333V759.466667a136.533333 136.533333 0 0 0 136.533333 136.533333h1228.8a136.533333 136.533333 0 0 0 136.533334-136.533333v-750.933334a136.533333 136.533333 0 0 0-136.533334-136.533333z m68.266667 819.2c0 75.400533-26.999467 136.533333-102.4 136.533333H170.666667C95.266133 827.733333 68.266667 766.600533 68.266667 691.2v-648.533333c0-75.400533 61.1328-102.4 136.533333-102.4h1092.266667c75.400533 0 136.533333 26.999467 136.533333 102.4V691.2z"  horiz-adv-x="1501" />

    
    <glyph glyph-name="home" unicode="&#58896;" d="M428.884546-102.39999999999998v204.8a51.2 51.2 0 0 0 51.2 51.2h102.4a51.2 51.2 0 0 0 51.2-51.2v-204.8h-204.8z m184.32 183.4752a51.2 51.2 0 0 1-51.2 51.2h-61.44a51.2 51.2 0 0 1-51.2-51.2v-162.1504h163.84v162.1504zM899.156546-102.39999999999998H121.684546c-95.8464 0-103.9872 44.3136-102.4 128V456.96c0 11.392 4.1728 21.7344 12.5184 29.0048L402.439746 853.5296A147.4304 147.4304 0 0 0 505.684546 896c38.5792 0 76.1344-15.5392 103.2448-42.4704l370.6368-367.5648c8.3456-8.2944 12.5184-18.6624 12.5184-29.0048v-466.7136C992.084546-46.156799999999976 962.900546-102.39999999999998 899.156546-102.39999999999998zM147.284546-51.200000000000045H68.462146c95.232 0.0768 624.5888 0 821.2224 0 43.8016 0 51.2 51.2 51.2 51.2l-0.256 438.784L552.404546 824.6272A66.7392 66.7392 0 0 1 505.684546 844.544c-17.792 0-34.4832-6.6304-46.72-19.9168L70.740546 438.784S70.484546 126.4384 70.484546 0c0-47.1808 51.2-51.2 51.2-51.2h25.6z"  horiz-adv-x="1024" />

    
    <glyph glyph-name="card-active" unicode="&#58897;" d="M136.533333 896h1228.8a136.533333 136.533333 0 0 0 136.533334-136.533333v-750.933334a136.533333 136.533333 0 0 0-136.533334-136.533333H136.533333a136.533333 136.533333 0 0 0-136.533333 136.533333V759.466667a136.533333 136.533333 0 0 0 136.533333 136.533333zM68.266667 588.8h1365.333333v-102.4H68.266667V588.8zM170.666667 145.06666700000005h204.8v-34.133334H170.666667v34.133334zM1365.333333-128H136.533333a136.533333 136.533333 0 0 0-136.533333 136.533333V759.466667a136.533333 136.533333 0 0 0 136.533333 136.533333h1228.8a136.533333 136.533333 0 0 0 136.533334-136.533333v-750.933334a136.533333 136.533333 0 0 0-136.533334-136.533333z m68.266667 819.2c0 75.400533-26.999467 136.533333-102.4 136.533333H170.666667C95.266133 827.733333 68.266667 766.600533 68.266667 691.2v-648.533333c0-75.400533 61.1328-102.4 136.533333-102.4h1092.266667c75.400533 0 136.533333 26.999467 136.533333 102.4V691.2z"  horiz-adv-x="1501" />

    
    <glyph glyph-name="money" unicode="&#58898;" d="M512-128C229.229714-128 0 101.22971399999994 0 384S229.229714 896 512 896s512-229.229714 512-512-229.229714-512-512-512z m0 975.238095C256.170667 847.238095 48.761905 639.829333 48.761905 384s207.408762-463.238095 463.238095-463.238095 463.238095 207.408762 463.238095 463.238095S767.829333 847.238095 512 847.238095zM680.374857 611.08419a10.48381 10.48381 0 0 1-1.145905 14.31162 9.337905 9.337905 0 0 1-13.628952-1.194667l-153.429333-190.488381-153.770667 190.171428a9.411048 9.411048 0 0 1-13.653333 1.170286 10.532571 10.532571 0 0 1-1.121524-14.336l158.232381-195.657143v-28.988952h-113.615238a9.923048 9.923048 0 0 1-9.679238-10.166857c0-5.607619 4.33981-10.142476 9.679238-10.142476h113.615238v-90.112h-113.615238a9.947429 9.947429 0 0 1-9.679238-10.166858c0-5.607619 4.33981-10.142476 9.679238-10.142476h113.615238v-104.984381c0-5.607619 4.33981-10.166857 9.679238-10.166857a9.947429 9.947429 0 0 1 9.679238 10.166857v104.984381h113.615238a9.923048 9.923048 0 0 1 9.679238 10.142476 9.947429 9.947429 0 0 1-9.679238 10.166858h-113.615238v90.112h113.615238a9.923048 9.923048 0 0 1 9.679238 10.142476 9.923048 9.923048 0 0 1-9.679238 10.166857h-113.615238v27.40419l159.158857 197.607619z"  horiz-adv-x="1024" />

    
    <glyph glyph-name="money-active" unicode="&#58899;" d="M488.979845 873.773643c257.781284 0 466.753488-208.972205 466.753488-466.753488s-208.972205-466.753488-466.753488-466.753488S22.226357 149.23887100000002 22.226357 407.020155 231.198561 873.773643 488.979845 873.773643zM488.979845-59.733333000000016C231.198561-59.733333000000016 22.226357 149.23887100000002 22.226357 407.020155S231.198561 873.773643 488.979845 873.773643s466.753488-208.972205 466.753488-466.753488-208.972205-466.753488-466.753488-466.753488z m0 889.054263C255.758685 829.32093 66.67907 640.241315 66.67907 407.020155s189.079616-422.300775 422.300775-422.300775 422.300775 189.079616 422.300775 422.300775S722.201005 829.32093 488.979845 829.32093zM642.475064 614.0364400000001a9.557333 9.557333 0 0 1-1.044639 13.046872 8.512695 8.512695 0 0 1-12.424534-1.089092l-139.870462-173.654524-140.181631 173.365582a8.579374 8.579374 0 0 1-12.446759 1.066865 9.601786 9.601786 0 0 1-1.022413-13.069098l144.249055-178.366512v-26.427138h-103.574822a9.046127 9.046127 0 0 1-8.823864-9.26839c0-5.112062 3.956291-9.246164 8.823864-9.246165h103.574822v-82.148614h-103.574822a9.068353 9.068353 0 0 1-8.823864-9.26839c0-5.112062 3.956291-9.246164 8.823864-9.246165h103.574822v-95.706691c0-5.112062 3.956291-9.268391 8.823863-9.268391a9.068353 9.068353 0 0 1 8.823864 9.268391v95.706691h103.574821a9.046127 9.046127 0 0 1 8.823864 9.246165 9.068353 9.068353 0 0 1-8.823864 9.26839h-103.574821v82.148614h103.574821a9.046127 9.046127 0 0 1 8.823864 9.246165 9.046127 9.046127 0 0 1-8.823864 9.26839h-103.574821v24.982425l145.093656 180.14462z"  horiz-adv-x="1048" />

    
    <glyph glyph-name="home-active" unicode="&#58900;" d="M904.53911-71.39117899999997l-252.429128 0.026256V-101.74359000000004h-245.392411v30.378667c-124.691692 0.026256-240.246154 0.026256-310.980923 0-0.945231 0.078769-53.746872 4.647385-53.746872 53.746872 0 132.831179 0.262564 460.878769 0.262565 460.878769L451.012135 848.554667c12.891897 13.942154 30.457436 20.926359 49.204513 20.926359 18.747077 0 36.312615-8.139487 49.204513-20.926359L958.180956 443.260718 958.44352-17.618051000000037s-7.798154-53.773128-53.90441-53.773128z m-277.661539 164.338871a52.512821 52.512821 0 0 1-52.51282 52.512821h-89.901949a52.512821 52.512821 0 0 1-52.51282-52.512821v-168.671179h194.927589v168.671179zM122.85952-71.39117899999997H39.863007l55.873641 0.026256 0.157539-0.026256h26.965333zM915.645571-128H118.238392c-98.304 0-106.653538 45.449846-105.025641 131.282051V445.702564c0 11.684103 4.279795 22.291692 12.839384 29.748513L406.192443 852.440615A151.210667 151.210667 0 0 0 512.084546 896c39.56841 0 78.086564-15.937641 105.892102-43.559385l380.140308-376.989538c8.55959-8.507077 12.839385-19.140923 12.839385-29.748513v-478.680615C1010.956341-70.31466699999999 981.024033-128 915.645571-128zM144.494802-75.48717899999997H63.651315c97.673846 0.078769 640.603897 0 842.279384 0 44.924718 0 52.512821 52.512821 52.512821 52.51282l-0.262564 450.034872L560.002494 822.797128A68.450462 68.450462 0 0 1 512.084546 843.224615c-18.248205 0-35.367385-6.80041-47.917949-20.427487L65.988135 427.060513S65.725571 106.706051 65.725571-22.97435900000005c0-48.390564 52.512821-52.512821 52.512821-52.51282h26.25641z"  horiz-adv-x="1024" />

    
    <glyph glyph-name="xiangji" unicode="&#58901;" d="M1138.112-128H141.9136C63.6544-128 0.0128-65.8432 0.0128 10.5728V644.2496C0.0128 720.6656 63.7056 782.848 141.9136 782.848h142.2336c2.5344 5.4528 10.8544 23.3472 16.4352 37.0944C324.8512 879.6672 342.7456 896 383.808 896h516.1728c41.9072 0 54.4256-16.9472 74.88-58.7008 6.8864-14.0544 21.376-46.6176 24.832-54.4256h138.4192C1216.3712 782.8736 1280.0128 720.7168 1280.0128 644.2496v-633.6768C1280.0128-65.8176 1216.32-128 1138.112-128z m89.728 772.3008c0 48.3328-40.2432 87.7056-89.7536 87.7056h-154.8288c-10.624 0-20.7104 6.9632-25.1136 17.2544-2.5344 5.9648-11.0592 24.6528-19.2768 42.7776l-12.9024 28.3904-0.896 2.048c-4.7104 10.5984-10.0352 22.656-26.8288 22.656H383.808c-19.1488 0-27.3152-20.3776-32.2048-32.5888a95.488 95.488 0 0 0-1.8688-4.5568l-8.32-19.328c-4.8384-11.4432-9.9072-23.2704-17.2288-39.424-4.096-8.96-10.496-17.2544-29.4144-17.2544H141.9136c-49.5104 0-89.7792-39.3984-89.7792-87.7056h-0.0256v-633.6256c0-48.3328 40.2688-87.7056 89.7792-87.7056h996.1984c49.5104 0 89.7536 39.3728 89.7536 87.7056V644.3008z m-147.6352-83.584h-65.024a25.7792 25.7792 0 0 0-26.0864 25.472c0 14.0288 11.6992 25.4208 26.0864 25.4208h65.024c14.3872 0 26.0864-11.4432 26.0864-25.4208 0-14.08-11.6992-25.472-26.0864-25.472zM640.0128 42.7008c-160.4096 0-290.9184 127.5904-290.9184 284.4416 0 156.8512 130.5088 284.4416 290.9184 284.4416 160.4096 0 290.9184-127.5904 290.9184-284.4416 0-156.8512-130.5088-284.4416-290.9184-284.4416z m0 519.552c-132.5568 0-240.4096-105.472-240.4096-235.1104 0-129.6128 107.8784-235.0848 240.4096-235.0848s240.4096 105.472 240.4096 235.0848c0 129.6384-107.8528 235.1104-240.4096 235.1104z"  horiz-adv-x="1280" />

    
    <glyph glyph-name="bianji" unicode="&#58902;" d="M935.045914 640.810076c-18.413703 0-28.913024-14.488425-28.913024-28.976849v-622.970351c0-32.93404-24.987746-57.953699-57.889873-57.953699H119.673112c-32.870215 0-57.85796 25.019659-57.857961 57.953699V721.134669c0 31.625614 24.987746 57.953699 57.857961 57.953699h590.48309c18.413703 0 28.944937 14.488425 28.944937 28.976849s-14.456512 28.976849-28.944937 28.97685H119.673112C53.932682 837.042067 0 783.045559 0 721.134669v-732.271793C0-77.005205 53.932682-127.044522 119.673112-127.044522h728.569905c65.772342 0 119.673112 51.379656 119.673112 115.907398V611.833227c-3.925278 18.413703-14.456512 28.976849-32.870215 28.976849zM1044.219705 887.081384c-10.531234 10.531234-28.944937 10.531234-43.401449 0L394.538315 320.756306a28.657721 28.657721 0 0 1 0-39.508083c10.531234-10.531234 28.944937-10.531234 43.401449 0L1044.219705 847.573301a28.721547 28.721547 0 0 1 0 39.508083z"  horiz-adv-x="1054" />

    
    <glyph glyph-name="tuoyuankaobei" unicode="&#58904;" d="M512 622.933333a238.933333 238.933333 0 1 0 0-477.866666 238.933333 238.933333 0 0 0 0 477.866666zM512-128C229.205333-128 0 101.239467 0 384 0 666.794667 229.205333 896.034133 512 896.034133c282.760533 0 512-229.239467 512-512.034133 0-282.760533-229.239467-512-512-512z m0 955.733333C266.922667 827.733333 68.266667 629.077333 68.266667 384s198.656-443.733333 443.733333-443.733333 443.733333 198.656 443.733333 443.733333S757.077333 827.733333 512 827.733333z"  horiz-adv-x="1024" />

    
    <glyph glyph-name="guanbi" unicode="&#58905;" d="M583.909509 385.732566l425.555766 422.518276c9.590278 9.590278 14.402481 21.330688 14.402481 35.221233 0 13.924673-4.812203 26.177021-14.402481 36.8253a53.958109 53.958109 0 0 1-23.17366 13.651641 44.709123 44.709123 0 0 1-26.415924 0 67.814525 67.814525 0 0 1-24.026888-13.651641l-423.917569-422.518276L91.18767 880.297375A48.804615 48.804615 0 0 1 55.215597 894.699856C40.813117 894.699856 28.52664 889.887653 18.390297 880.297375a47.439451 47.439451 0 0 1-15.18745-36.006202c0-14.402481 5.32414-26.381795 16.006548-36.006202l420.743564-422.518276L16.035389-36.751582A46.381449 46.381449 0 0 1 0.02884-72.757784c0-14.402481 5.051107-26.415925 15.18745-36.006202 10.136343-9.590278 22.149787-14.402481 36.006203-14.402481 13.856415 0 26.108763 4.812203 36.791171 14.402481l423.91757 422.518276L935.848803-113.576189a53.582689 53.582689 0 0 1 36.825301-14.402481c3.208136 0 6.416271 0.273033 9.624406 0.819098a66.210457 66.210457 0 0 1 9.624407 2.423166 27.74696 27.74696 0 0 1 8.805308 4.812204c2.66207 2.150133 5.597173 4.266138 8.805308 6.382142 9.590278 10.682409 14.368352 22.968885 14.368352 36.8253 0 13.856415-4.778074 26.142892-14.368352 36.825301L583.909509 385.732566z"  horiz-adv-x="1024" />

    
    <glyph glyph-name="lianxiren" unicode="&#58906;" d="M875.514827-127.997207H206.660597a147.548219 147.548219 0 0 0-148.479123 146.151863v73.075932H0v71.679577h58.181474v184.31891H0v71.679577h58.181474V603.227563H0V674.907139h58.181474V749.844878A147.548219 147.548219 0 0 0 206.660597 895.996742h668.85423a148.479123 148.479123 0 0 0 106.123009-43.752469 143.824605 143.824605 0 0 0 42.356113-102.399395v-731.690222A147.548219 147.548219 0 0 0 875.514827-127.997207zM127.999244 161.048357v-142.893701a77.73045 77.73045 0 0 1 78.661353-76.334094h668.85423a77.73045 77.73045 0 0 1 78.661353 76.334094V749.844878A74.472287 74.472287 0 0 1 930.90359 802.906383a79.592257 79.592257 0 0 1-56.785119 23.27259H206.660597a77.73045 77.73045 0 0 1-78.661353-76.334095zM535.269564 320.232871A201.540627 201.540627 0 0 1 325.816257 128.00128h69.817769a134.050117 134.050117 0 0 0 139.635538 127.999244 134.050117 134.050117 0 0 0 139.635539-127.999244H744.722872a201.540627 201.540627 0 0 1-209.453308 192.231591zM535.269564 360.727178a139.635539 139.635539 0 0 0-139.635538 139.635538 139.635539 139.635539 0 1 0 139.635538-139.635538z m0 209.453307a69.817769 69.817769 0 0 1-49.33789-119.155659 68.886866 68.886866 0 0 1 48.872439-20.479879 69.817769 69.817769 0 1 1 0 139.635538z"  horiz-adv-x="1024" />

    
    <glyph glyph-name="arrow-bottom" unicode="&#58907;" d="M490.666667 128a64 64 0 0 0-45.226667 18.773333l-384 384a64 64 0 0 0 90.453333 90.453334l341.333334-341.333334 341.333333 341.333334a64 64 0 0 0 90.453333-90.453334l-384-384a64 64 0 0 0-50.346666-18.773333z"  horiz-adv-x="1024" />

    
    <glyph glyph-name="ziyuan" unicode="&#58908;" d="M320-85.333333a64 64 0 0 0-45.226667 109.226666l341.333334 341.333334-341.333334 341.333333a64 64 0 0 0 90.453334 85.333333l384-384a64 64 0 0 0 0-90.453333l-384-384a64 64 0 0 0-45.226667-18.773333z"  horiz-adv-x="1024" />

    


  </font>
</defs>
</svg>
